<svg viewBox="0 0 60 60" xmlns="http://www.w3.org/2000/svg"><path fill-rule="evenodd" clip-rule="evenodd" d="M18.733 27.053h22.412c1.405 0 2.554-1.123 2.566-2.378V2.528c0-1.388-1.149-2.522-2.554-2.522H18.733c-1.405 0-2.554 1.134-2.554 2.522V24.53c0 1.388 1.149 2.523 2.554 2.523zm19.87-4.9h-17.45V4.918h17.45v17.235zM2.554 59.144h22.411c1.406 0 2.42-1.134 2.567-2.51V34.487c0-1.388-1.15-2.522-2.554-2.522H2.554C1.149 31.965 0 33.099 0 34.487v22.135c0 1.388 1.149 2.522 2.554 2.522zm19.87-4.912H4.974V36.998h17.45v17.234zm34.9 4.912H34.912c-1.405 0-2.553-1.134-2.553-2.522V34.487c0-1.388 1.148-2.522 2.553-2.522h22.424c1.405 0 2.554 1.134 2.554 2.522v22.147c-.012 1.376-1.16 2.51-2.566 2.51zm-19.87-4.912h17.45V36.998h-17.45v17.234z"/></svg>
