<svg viewBox="0 0 70 65" xmlns="http://www.w3.org/2000/svg"><path fill-rule="evenodd" clip-rule="evenodd" d="M69.73 21.117L58.558 1.09A2.126 2.126 0 0056.701 0H13.3c-.771 0-1.481.417-1.857 1.09L.27 21.117a2.126 2.126 0 00.208 2.378l32.877 40.368a.316.316 0 00.018.02h.001l.015.017c.034.04.069.078.106.116l.003.003.003.003.003.004.003.003.01.01.02.017.002.003.003.002a2.279 2.279 0 00.122.107l.026.021a2.152 2.152 0 00.157.112l.029.02.032.02c.037.022.075.042.113.062l.017.01.011.005a.417.417 0 00.018.01l.043.02c.041.02.084.036.128.053h.002c.028.011.055.023.083.032l.007.004.008.002.006.002.032.008.007.002.019.005c.072.021.144.039.218.052a2.112 2.112 0 00.358.037h.012l.013.002.025-.002a2.115 2.115 0 00.341-.033l.017-.003a2.064 2.064 0 00.244-.06h.004l.015-.004.012-.004.007-.001a.094.094 0 00.007-.003l.002-.001.007-.003a.56.56 0 00.022-.008l.028-.01.011-.005.02-.008c.044-.017.088-.034.13-.053l.045-.022.044-.023c.038-.02.077-.04.113-.063a2.062 2.062 0 00.362-.275l.012-.01.026-.024.014-.015a2.064 2.064 0 00.122-.134l.007-.008a.319.319 0 00.01-.012l32.874-40.368c.55-.675.632-1.617.208-2.378zM39.197 4.251l6.02 15.776h-20.43L30.81 4.252h8.387zm-4.194 51.477l10.363-31.45H24.638l10.364 31.45zm-14.84-31.45l9.218 27.974L6.598 24.279h13.565zm43.24 0H49.841l-9.217 27.973 22.778-27.972zm.852-4.25H49.767l-6.02-15.776h11.706l8.801 15.776zM26.258 4.252h-11.71L5.746 20.027h14.49l6.022-15.776z"/></svg>
