<svg viewBox="0 0 67 70" xmlns="http://www.w3.org/2000/svg"><path fill-rule="evenodd" clip-rule="evenodd" d="M63.73 35.903a2.044 2.044 0 010-1.806l2.6-5.32a6.053 6.053 0 00-2.611-8.038l-5.232-2.776a2.044 2.044 0 01-1.061-1.461l-1.023-5.833a6.053 6.053 0 00-6.838-4.968l-5.863.83a2.044 2.044 0 01-1.718-.559l-4.256-4.117a6.053 6.053 0 00-8.452 0L25.02 5.973a2.044 2.044 0 01-1.718.558l-5.863-.83a6.053 6.053 0 00-6.838 4.969l-1.023 5.832a2.044 2.044 0 01-1.061 1.461L3.286 20.74a6.053 6.053 0 00-2.612 8.038l2.6 5.32a2.04 2.04 0 010 1.806l-2.6 5.32a6.053 6.053 0 002.612 8.039l5.23 2.775c.565.3.952.832 1.063 1.461l1.022 5.833a6.05 6.05 0 006.838 4.968l5.864-.83a2.043 2.043 0 011.717.559l4.256 4.117a6.059 6.059 0 004.226 1.72 6.06 6.06 0 004.226-1.72l4.256-4.117a2.046 2.046 0 011.718-.559l5.863.83a6.053 6.053 0 006.838-4.968l1.023-5.833a2.043 2.043 0 011.061-1.461l5.231-2.775a6.053 6.053 0 002.612-8.039l-2.6-5.32zm-1.896 9.806l-5.231 2.775a6.04 6.04 0 00-3.138 4.32l-1.023 5.832a2.048 2.048 0 01-2.314 1.68l-5.863-.829a6.038 6.038 0 00-5.077 1.65l-4.256 4.117a2.048 2.048 0 01-2.86 0l-4.256-4.117a6.033 6.033 0 00-5.077-1.65l-5.863.83a2.048 2.048 0 01-2.314-1.681l-1.023-5.833a6.039 6.039 0 00-3.137-4.319L5.17 45.71a2.048 2.048 0 01-.884-2.72l2.6-5.32a6.04 6.04 0 000-5.338l-2.6-5.32a2.048 2.048 0 01.884-2.72l5.23-2.775a6.04 6.04 0 003.138-4.32l1.023-5.832a2.048 2.048 0 012.314-1.68l5.863.829a6.04 6.04 0 005.077-1.65l4.256-4.117a2.048 2.048 0 012.86 0l4.256 4.117a6.038 6.038 0 005.077 1.65l5.863-.83a2.048 2.048 0 012.313 1.681l1.023 5.833a6.04 6.04 0 003.138 4.319l5.231 2.775a2.048 2.048 0 01.884 2.72l-2.6 5.32a6.039 6.039 0 000 5.338l2.6 5.32a2.048 2.048 0 01-.883 2.72zM45.35 20.307a2.01 2.01 0 012.843 2.844l-26.54 26.542a2.004 2.004 0 01-1.423.589 2.01 2.01 0 01-1.422-3.433L45.35 20.307zm-27.265 3.969c0-4.066 3.307-7.373 7.373-7.373 4.065 0 7.373 3.307 7.373 7.373 0 4.065-3.308 7.373-7.373 7.373-4.066 0-7.373-3.308-7.373-7.373zm4.022 0a3.355 3.355 0 003.35 3.351 3.355 3.355 0 003.352-3.351 3.355 3.355 0 00-3.351-3.352 3.355 3.355 0 00-3.351 3.352zM41.544 38.35c-4.065 0-7.373 3.308-7.373 7.373 0 4.066 3.308 7.373 7.373 7.373 4.066 0 7.373-3.307 7.373-7.373 0-4.065-3.307-7.373-7.373-7.373zm0 10.725a3.355 3.355 0 01-3.351-3.352 3.355 3.355 0 013.351-3.35 3.355 3.355 0 013.352 3.35 3.355 3.355 0 01-3.352 3.352z"/></svg>