<svg width="38" height="31" viewBox="0 0 38 31" fill="none" xmlns="http://www.w3.org/2000/svg"><path d="M28.703 28.038c0 .768.272 1.423.815 1.965a2.677 2.677 0 001.965.814c.767 0 1.422-.271 1.964-.814a2.676 2.676 0 00.815-1.965c0-.767-.272-1.422-.815-1.965a2.678 2.678 0 00-1.964-.814c-.768 0-1.423.272-1.965.814a2.68 2.68 0 00-.815 1.965z" fill="#fff"/><path d="M36.628 3.439a1.336 1.336 0 00-.977-.413H9.575a15.536 15.536 0 00-.097-.553l-.12-.641a3.83 3.83 0 00-.163-.575 1.731 1.731 0 00-.282-.532A1.386 1.386 0 008.48.388a1.325 1.325 0 00-.619-.14H2.302c-.376 0-.702.137-.977.412-.275.275-.412.6-.412.977 0 .376.137.702.412.977.275.275.601.412.977.412h4.429l3.843 17.87a60.97 60.97 0 01-.445.824c-.268.492-.481.923-.64 1.292-.16.37-.24.655-.24.858 0 .376.138.702.413.977.275.274.601.412.977.412h22.232c.376 0 .702-.138.977-.412.275-.275.413-.601.413-.977 0-.377-.138-.703-.413-.977a1.336 1.336 0 00-.977-.413H12.897c.348-.695.521-1.158.521-1.39a2.35 2.35 0 00-.054-.477 21.04 21.04 0 00-.13-.576 5.5 5.5 0 01-.098-.466l22.668-2.649c.36-.044.658-.199.89-.467a1.37 1.37 0 00.347-.922V4.416c0-.376-.138-.702-.413-.977z" fill="#fff"/><path d="M9.25 28.038c0 .768.27 1.423.814 1.965a2.678 2.678 0 001.965.814c.767 0 1.422-.271 1.964-.814a2.676 2.676 0 00.815-1.965c0-.767-.271-1.422-.815-1.965a2.679 2.679 0 00-1.964-.814 2.68 2.68 0 00-1.965.814 2.678 2.678 0 00-.814 1.965z" fill="#fff"/></svg>