<svg xmlns="http://www.w3.org/2000/svg" xmlns:xlink="http://www.w3.org/1999/xlink"><symbol id="advantage-discount-icon" viewBox="0 0 67 70"><path fill-rule="evenodd" clip-rule="evenodd" d="M63.73 35.903a2.044 2.044 0 010-1.806l2.6-5.32a6.053 6.053 0 00-2.611-8.038l-5.232-2.776a2.044 2.044 0 01-1.061-1.461l-1.023-5.833a6.053 6.053 0 00-6.838-4.968l-5.863.83a2.044 2.044 0 01-1.718-.559l-4.256-4.117a6.053 6.053 0 00-8.452 0L25.02 5.973a2.044 2.044 0 01-1.718.558l-5.863-.83a6.053 6.053 0 00-6.838 4.969l-1.023 5.832a2.044 2.044 0 01-1.061 1.461L3.286 20.74a6.053 6.053 0 00-2.612 8.038l2.6 5.32a2.04 2.04 0 010 1.806l-2.6 5.32a6.053 6.053 0 002.612 8.039l5.23 2.775c.565.3.952.832 1.063 1.461l1.022 5.833a6.05 6.05 0 006.838 4.968l5.864-.83a2.043 2.043 0 011.717.559l4.256 4.117a6.059 6.059 0 004.226 1.72 6.06 6.06 0 004.226-1.72l4.256-4.117a2.046 2.046 0 011.718-.559l5.863.83a6.053 6.053 0 006.838-4.968l1.023-5.833a2.043 2.043 0 011.061-1.461l5.231-2.775a6.053 6.053 0 002.612-8.039l-2.6-5.32zm-1.896 9.806l-5.231 2.775a6.04 6.04 0 00-3.138 4.32l-1.023 5.832a2.048 2.048 0 01-2.314 1.68l-5.863-.829a6.038 6.038 0 00-5.077 1.65l-4.256 4.117a2.048 2.048 0 01-2.86 0l-4.256-4.117a6.033 6.033 0 00-5.077-1.65l-5.863.83a2.048 2.048 0 01-2.314-1.681l-1.023-5.833a6.039 6.039 0 00-3.137-4.319L5.17 45.71a2.048 2.048 0 01-.884-2.72l2.6-5.32a6.04 6.04 0 000-5.338l-2.6-5.32a2.048 2.048 0 01.884-2.72l5.23-2.775a6.04 6.04 0 003.138-4.32l1.023-5.832a2.048 2.048 0 012.314-1.68l5.863.829a6.04 6.04 0 005.077-1.65l4.256-4.117a2.048 2.048 0 012.86 0l4.256 4.117a6.038 6.038 0 005.077 1.65l5.863-.83a2.048 2.048 0 012.313 1.681l1.023 5.833a6.04 6.04 0 003.138 4.319l5.231 2.775a2.048 2.048 0 01.884 2.72l-2.6 5.32a6.039 6.039 0 000 5.338l2.6 5.32a2.048 2.048 0 01-.883 2.72zM45.35 20.307a2.01 2.01 0 012.843 2.844l-26.54 26.542a2.004 2.004 0 01-1.423.589 2.01 2.01 0 01-1.422-3.433L45.35 20.307zm-27.265 3.969c0-4.066 3.307-7.373 7.373-7.373 4.065 0 7.373 3.307 7.373 7.373 0 4.065-3.308 7.373-7.373 7.373-4.066 0-7.373-3.308-7.373-7.373zm4.022 0a3.355 3.355 0 003.35 3.351 3.355 3.355 0 003.352-3.351 3.355 3.355 0 00-3.351-3.352 3.355 3.355 0 00-3.351 3.352zM41.544 38.35c-4.065 0-7.373 3.308-7.373 7.373 0 4.066 3.308 7.373 7.373 7.373 4.066 0 7.373-3.307 7.373-7.373 0-4.065-3.307-7.373-7.373-7.373zm0 10.725a3.355 3.355 0 01-3.351-3.352 3.355 3.355 0 013.351-3.35 3.355 3.355 0 013.352 3.35 3.355 3.355 0 01-3.352 3.352z"/></symbol><symbol id="advantage-product-icon" viewBox="0 0 70 65"><path fill-rule="evenodd" clip-rule="evenodd" d="M69.73 21.117L58.558 1.09A2.126 2.126 0 0056.701 0H13.3c-.771 0-1.481.417-1.857 1.09L.27 21.117a2.126 2.126 0 00.208 2.378l32.877 40.368a.316.316 0 00.018.02h.001l.015.017c.034.04.069.078.106.116l.003.003.003.003.003.004.003.003.01.01.02.017.002.003.003.002a2.279 2.279 0 00.122.107l.026.021a2.152 2.152 0 00.157.112l.029.02.032.02c.037.022.075.042.113.062l.017.01.011.005a.417.417 0 00.018.01l.043.02c.041.02.084.036.128.053h.002c.028.011.055.023.083.032l.007.004.008.002.006.002.032.008.007.002.019.005c.072.021.144.039.218.052a2.112 2.112 0 00.358.037h.012l.013.002.025-.002a2.115 2.115 0 00.341-.033l.017-.003a2.064 2.064 0 00.244-.06h.004l.015-.004.012-.004.007-.001a.094.094 0 00.007-.003l.002-.001.007-.003a.56.56 0 00.022-.008l.028-.01.011-.005.02-.008a2.52 2.52 0 00.13-.053l.045-.022.044-.023c.038-.02.077-.04.113-.063a2.062 2.062 0 00.362-.275l.012-.01.026-.024.014-.015a2.064 2.064 0 00.122-.134l.007-.008a.319.319 0 00.01-.012l32.874-40.368c.55-.675.632-1.617.208-2.378zM39.197 4.251l6.02 15.776h-20.43L30.81 4.252h8.387zm-4.194 51.477l10.363-31.45H24.638l10.364 31.45zm-14.84-31.45l9.218 27.974L6.598 24.279h13.565zm43.24 0H49.841l-9.217 27.973 22.778-27.972zm.852-4.25H49.767l-6.02-15.776h11.706l8.801 15.776zM26.258 4.252h-11.71L5.746 20.027h14.49l6.022-15.776z"/></symbol><symbol id="advantage-range-icon" viewBox="0 0 60 60"><path fill-rule="evenodd" clip-rule="evenodd" d="M18.733 27.053h22.412c1.405 0 2.554-1.123 2.566-2.378V2.528c0-1.388-1.149-2.522-2.554-2.522H18.733c-1.405 0-2.554 1.134-2.554 2.522V24.53c0 1.388 1.149 2.523 2.554 2.523zm19.87-4.9h-17.45V4.918h17.45v17.235zM2.554 59.144h22.411c1.406 0 2.42-1.134 2.567-2.51V34.487c0-1.388-1.15-2.522-2.554-2.522H2.554C1.149 31.965 0 33.099 0 34.487v22.135c0 1.388 1.149 2.522 2.554 2.522zm19.87-4.912H4.974V36.998h17.45v17.234zm34.9 4.912H34.912c-1.405 0-2.553-1.134-2.553-2.522V34.487c0-1.388 1.148-2.522 2.553-2.522h22.424c1.405 0 2.554 1.134 2.554 2.522v22.147c-.012 1.376-1.16 2.51-2.566 2.51zm-19.87-4.912h17.45V36.998h-17.45v17.234z"/></symbol><symbol id="heart-active" viewBox="0 0 26 24"><path d="M25.022 7.44c0-3.932-3.217-7.149-7.15-7.149-2.144 0-4.11 1.95-5.361 3.559C11.26 2.24 9.294.29 7.149.29 3.217.291 0 3.508 0 7.441c0 1.965.715 3.753 2.145 5.004l10.187 11.08h.179L23.235 11.91c1.25-1.252 1.787-2.681 1.787-4.469z" fill="#EA431B"/></symbol><symbol id="heart" viewBox="0 0 27 26"><path d="M26.022 8.44c0-3.932-3.217-7.149-7.15-7.149-2.144 0-4.11 1.95-5.361 3.559-1.251-1.61-3.217-3.56-5.362-3.56C4.217 1.291 1 4.508 1 8.441c0 1.965.715 3.753 2.145 5.004l10.187 11.08h.179L24.235 12.91c1.25-1.252 1.787-2.681 1.787-4.469z" stroke="#767676" stroke-miterlimit="10"/></symbol><symbol id="icon_cart_w" viewBox="0 0 38 31"><path d="M28.703 28.038c0 .768.272 1.423.815 1.965a2.677 2.677 0 001.965.814c.767 0 1.422-.271 1.964-.814a2.676 2.676 0 00.815-1.965c0-.767-.272-1.422-.815-1.965a2.678 2.678 0 00-1.964-.814c-.768 0-1.423.272-1.965.814a2.68 2.68 0 00-.815 1.965z" fill="#fff"/><path d="M36.628 3.439a1.336 1.336 0 00-.977-.413H9.575a15.536 15.536 0 00-.097-.553l-.12-.641a3.83 3.83 0 00-.163-.575 1.731 1.731 0 00-.282-.532A1.386 1.386 0 008.48.388a1.325 1.325 0 00-.619-.14H2.302c-.376 0-.702.137-.977.412-.275.275-.412.6-.412.977 0 .376.137.702.412.977.275.275.601.412.977.412h4.429l3.843 17.87a60.97 60.97 0 01-.445.824c-.268.492-.481.923-.64 1.292-.16.37-.24.655-.24.858 0 .376.138.702.413.977.275.274.601.412.977.412h22.232c.376 0 .702-.138.977-.412.275-.275.413-.601.413-.977 0-.377-.138-.703-.413-.977a1.336 1.336 0 00-.977-.413H12.897c.348-.695.521-1.158.521-1.39a2.35 2.35 0 00-.054-.477 21.04 21.04 0 00-.13-.576 5.5 5.5 0 01-.098-.466l22.668-2.649c.36-.044.658-.199.89-.467a1.37 1.37 0 00.347-.922V4.416c0-.376-.138-.702-.413-.977z" fill="#fff"/><path d="M9.25 28.038c0 .768.27 1.423.814 1.965a2.678 2.678 0 001.965.814c.767 0 1.422-.271 1.964-.814a2.676 2.676 0 00.815-1.965c0-.767-.271-1.422-.815-1.965a2.679 2.679 0 00-1.964-.814 2.68 2.68 0 00-1.965.814 2.678 2.678 0 00-.814 1.965z" fill="#fff"/></symbol><symbol id="question-circle-solid" viewBox="0 0 512 512"><path fill="currentColor" d="M504 256c0 136.997-111.043 248-248 248S8 392.997 8 256C8 119.083 119.043 8 256 8s248 111.083 248 248zM262.655 90c-54.497 0-89.255 22.957-116.549 63.758-3.536 5.286-2.353 12.415 2.715 16.258l34.699 26.31c5.205 3.947 12.621 3.008 16.665-2.122 17.864-22.658 30.113-35.797 57.303-35.797 20.429 0 45.698 13.148 45.698 32.958 0 14.976-12.363 22.667-32.534 33.976C247.128 238.528 216 254.941 216 296v4c0 6.627 5.373 12 12 12h56c6.627 0 12-5.373 12-12v-1.333c0-28.462 83.186-29.647 83.186-106.667 0-58.002-60.165-102-116.531-102zM256 338c-25.365 0-46 20.635-46 46 0 25.364 20.635 46 46 46s46-20.636 46-46c0-25.365-20.635-46-46-46z"/></symbol></svg>